Coordinates
version=1
nRows=17
nColumns=36
inDegrees=yes

Units are S.I. units (second, meters, Newtons, ...)
If the header above contains a line with 'inDegrees', this indicates whether rotational values are in degrees (yes) or radians (no).

endheader
time	pelvis_tilt	pelvis_list	pelvis_rotation	pelvis_tx	pelvis_ty	pelvis_tz	hip_flexion_r	hip_adduction_r	hip_rotation_r	knee_angle_r	knee_angle_r_beta	ankle_angle_r	subtalar_angle_r	mtp_angle_r	hip_flexion_l	hip_adduction_l	hip_rotation_l	knee_angle_l	knee_angle_l_beta	ankle_angle_l	subtalar_angle_l	mtp_angle_l	lumbar_extension	lumbar_bending	lumbar_rotation	arm_flex_r	arm_add_r	arm_rot_r	elbow_flex_r	pro_sup_r	arm_flex_l	arm_add_l	arm_rot_l	elbow_flex_l	pro_sup_l
      3.25000000	     -5.21139180	      4.22073318	    -12.71328421	      0.43506317	      0.95005866	     -0.06041143	     14.11692071	     -3.23749830	     -4.78765065	     32.38461277	      0.56521812	     14.18959335	      6.70910322	     -7.49999987	     13.07236528	      7.69346671	     -3.42411166	      9.75418820	      0.17024270	      1.46577557	     -5.68767556	     -7.49999987	    -18.59358046	      3.36218271	     -5.23836730	     41.48829217	    -25.56530946	    156.09977250	     86.20221651	     83.44221790	     26.58183575	     -9.83891353	     36.23212042	     74.96390823	     88.12999314
      3.26666670	     -5.67708582	      4.75112151	    -12.47531002	      0.42887774	      0.95104260	     -0.06710447	     14.79098196	     -3.67759926	     -5.31514035	     32.47132673	      0.56673156	     15.19264518	      7.25931395	     -7.49999987	     14.23131095	      8.43621657	     -3.66232781	      9.89566790	      0.17271199	      1.76688183	     -4.67805139	     -7.49999987	    -19.52127376	      3.43821478	     -5.92140671	     42.66903451	    -25.07677329	    156.19730297	     86.17893660	    106.33101034	     27.65225536	    -10.43704457	     38.50813435	     75.90203679	     86.56443470
      3.28333330	     -6.30543850	      5.33762034	    -12.16154031	      0.42431962	      0.95089722	     -0.06478046	     15.52266564	     -4.13614363	     -5.82884647	     32.48355799	      0.56694504	     16.42738770	      8.07351126	     -7.49999987	     15.90429691	      9.18498439	     -4.08547322	     10.38593659	      0.18126879	      2.23196955	     -3.86656204	     -7.49999987	    -20.33428683	      3.37080539	     -6.44112244	     43.78358354	    -24.62651420	    156.91339871	     86.12007197	    106.31311127	     28.68104510	    -11.22507019	     40.85869227	     76.21086203	     86.80012811
      3.30000000	     -7.24102560	      5.98672975	    -11.85514534	      0.41790718	      0.95138031	     -0.07172371	     16.61989903	     -4.57728131	     -6.13381752	     32.31496365	      0.56400251	     17.37371983	      8.33011736	     -7.49999987	     18.07872357	      9.97271458	     -4.77554295	     10.91860248	      0.19056556	      2.81917017	     -2.48687194	     -7.49999987	    -21.00210259	      3.47671951	     -6.94620378	     45.25370583	    -24.30047613	    157.80924518	     86.07639974	    106.49692072	     30.22806017	    -12.03026291	     43.69325908	     76.89785701	     86.96160972
      3.31666670	     -7.66501771	      6.52719502	    -11.62646566	      0.42106946	      0.95058218	     -0.07143110	     16.94432253	     -4.97563529	     -6.34473310	     31.84614522	      0.55582009	     17.95205997	      8.24920400	     -7.49999987	     19.35689198	     10.82536142	     -4.94146126	     10.93989206	      0.19093714	      2.83997327	     -2.31145766	     -7.49999987	    -22.15355262	      3.42389859	     -7.04831234	     46.29621356	    -24.52457349	    157.94290879	     85.73473819	    106.54733555	     30.41684578	    -11.92210638	     44.10780921	     76.76509363	     86.98713047
      3.33333330	     -8.58015003	      7.23875725	    -11.17925391	      0.42910088	      0.94564872	     -0.07155126	     18.12238881	     -5.61730645	     -6.80170155	     32.21408673	      0.56224188	     19.21682054	      9.02100251	     -7.49999987	     21.51248680	     11.63207246	     -5.79078858	     11.81064644	      0.20613467	      4.08878545	     -0.03761667	     -7.49999987	    -22.47030769	      3.55861811	     -8.07048878	     48.02378706	    -23.82712746	    159.53029341	     86.81721634	    110.26122017	     31.80125952	    -13.64393017	     48.46140000	     78.81174210	     86.27943275
      3.35000000	     -9.32966394	      7.82432724	    -10.82775284	      0.42163844	      0.94520499	     -0.07838904	     19.13189864	     -6.19328297	     -7.01229535	     32.41853405	      0.56581016	     20.15376332	      9.36409874	     -7.49999987	     23.24811351	     12.41483748	     -6.07996252	     12.39219060	      0.21628453	      4.57421939	      0.84183993	     -7.49999987	    -23.23066218	      3.72824965	     -8.64863014	     49.44537524	    -24.06066959	    160.15739183	     88.02970883	    110.60081574	     33.16428660	    -14.17090399	     50.43136411	     80.63198698	     86.43656910
      3.36666670	     -9.25620090	      8.25590027	    -10.61292872	      0.43338345	      0.94347233	     -0.07230993	     18.83974280	     -6.66654893	     -7.18816158	     32.33197927	      0.56429949	     20.87001376	      9.59370197	     -7.49999987	     23.55036059	     13.13801505	     -6.26089922	     12.46924636	      0.21762940	      4.93603644	      1.56126440	     -7.49999987	    -24.32601311	      3.58018137	     -9.36758652	     50.10403637	    -23.52389501	    160.90744120	     87.99844824	    111.45826664	     33.65248068	    -14.89933588	     51.92091268	     81.18396205	     86.56861059
      3.38333330	     -9.38131677	      8.63132430	    -10.26310537	      0.43203818	      0.93654488	     -0.07997378	     18.90698768	     -7.15949187	     -7.29245259	     32.48485827	      0.56696773	     21.59248518	      9.56563015	     -7.49999987	     24.14320208	     13.83016423	     -6.38380287	     12.85583403	      0.22437663	      5.22127178	      2.23427520	     -7.49999987	    -25.16435115	      3.74087660	    -10.23115387	     51.23860771	    -23.37915044	    161.60892384	     88.63395430	    112.78547439	     34.05438144	    -15.29525267	     52.96375647	     82.38668787	     85.51792072
      3.40000000	     -9.83909722	      9.12161850	    -10.00022743	      0.42967864	      0.93821858	     -0.08764473	     19.57857690	     -7.80319200	     -7.32889236	     32.85736219	      0.57346915	     22.29093482	      9.53024339	     -7.49999987	     25.10008519	     14.56145637	     -6.59662243	     13.26804013	      0.23157099	      5.16072375	      2.54743015	     -7.49999987	    -25.82778054	      3.95351414	    -10.77707817	     52.86175372	    -23.49423855	    162.66433673	     89.79225019	    113.18846937	     34.87994361	    -15.57801538	     54.99255716	     83.10083508	     85.70865711
      3.41666670	    -10.46764772	      9.63936323	     -9.70678551	      0.43232833	      0.92826127	     -0.08820138	     20.67984629	     -8.45775040	     -7.30974929	     33.76934029	      0.58938617	     23.03136412	      9.24303179	     -7.49999987	     26.38648297	     15.19862322	     -6.77448690	     14.18864454	      0.24763856	      5.61308426	      2.81620185	     -7.49999987	    -26.04139380	      4.10171840	    -11.51848178	     54.38514451	    -23.15307215	    164.10621072	     91.22541943	    114.24204927	     35.51357766	    -15.97341573	     56.91384287	     83.82938799	     84.50243225
      3.43333330	    -10.79607827	     10.09230016	     -9.43780149	      0.43652450	      0.93218452	     -0.08866014	     21.22839708	     -9.15733904	     -7.38754665	     34.49736678	      0.60209263	     23.71557315	      9.32248529	     -7.49999987	     27.20078084	     15.79342798	     -6.94073322	     14.99820272	      0.26176802	      6.02627266	      2.95186294	     -7.49999987	    -26.41603941	      4.18058448	    -11.98335514	     55.74283873	    -23.05427922	    165.27951194	     92.51177504	    114.72360802	     35.96330759	    -16.02430082	     58.48282656	     83.77228822	     84.68657037
      3.45000000	    -11.02422403	     10.48797288	     -9.15892095	      0.44152234	      0.92908956	     -0.08848295	     21.49670537	     -9.80642177	     -7.49214893	     35.14418697	      0.61338178	     24.42020084	      9.38850021	     -7.49999987	     27.77887223	     16.36656203	     -6.91573714	     15.66443593	      0.27339598	      6.43322408	      3.02827765	     -7.49999987	    -26.71983807	      4.20827454	    -12.49290094	     56.64185726	    -22.95588486	    166.14129059	     93.52910402	    115.33599263	     36.32238627	    -15.82178423	     59.20193236	     84.03614134	     84.83035413
      3.46666670	    -11.24435466	     10.88853243	     -8.77187215	      0.44240423	      0.92861106	     -0.08916412	     21.77578202	    -10.48257779	     -7.60292027	     35.78420723	      0.62455224	     25.08011817	      9.33513950	     -7.49999987	     28.22845442	     16.95615317	     -6.92603762	     16.27383935	      0.28403208	      6.86307882	      3.19689537	     -7.49999987	    -26.87717857	      4.17743311	    -13.05944076	     57.19326029	    -22.64374590	    167.03920759	     94.36671310	    116.06135785	     36.26868851	    -15.59301544	     60.21825462	     83.80765275	     83.01856282
      3.48333330	    -11.44445346	     11.16672769	     -8.47784196	      0.44140401	      0.93023248	     -0.08852645	     21.93664291	    -10.96719850	     -7.69260731	     36.13196010	      0.63062167	     25.46717487	      9.10099321	     -7.49999987	     28.54520524	     17.37313308	     -6.80431966	     16.58383920	      0.28944260	      6.93754577	      3.30779840	     -7.49999987	    -27.45835011	      4.17154912	    -13.51009049	     57.42100090	    -22.51528630	    167.17244514	     94.57872454	    116.13118630	     36.34318827	    -15.16743315	     60.45913780	     83.79074276	     83.10395113
      3.50000000	    -12.09641460	     11.55210428	     -8.02528503	      0.44158573	      0.92960665	     -0.08915391	     22.72343588	    -11.55433781	     -7.84437161	     36.65564857	      0.63976176	     26.11135158	      9.26363203	     -7.49999987	     29.54209553	     17.81265778	     -6.95030639	     17.27806317	      0.30155909	      7.40695015	      3.64895737	     -7.49999987	    -27.32945973	      4.40152004	    -14.64233016	     58.46689234	    -21.37576318	    168.18608654	     95.35854157	    116.54820489	     36.11027589	    -15.57029845	     60.41784063	     84.06240120	     86.39154730
      3.51666670	    -12.57788777	     11.81090741	     -7.65513064	      0.44124694	      0.92897968	     -0.08913938	     23.21028665	    -11.95455683	     -7.98429932	     36.79002250	      0.64210702	     26.40916518	      9.26908709	     -7.49999987	     30.16176989	     18.11993376	     -6.94905796	     17.54853253	      0.30627967	      7.74119199	      3.90529679	     -7.49999987	    -27.45874309	      4.45860488	    -15.03248040	     58.77992867	    -21.09646610	    168.09873924	     95.25461988	    116.69834017	     36.65340323	    -15.30253360	     61.65527604	     83.86635522	     85.28187563
